<mxfile host="app.diagrams.net" modified="2024-03-10T04:35:35.486Z" agent="Mozilla/5.0 (Windows NT 10.0; Win64; x64) AppleWebKit/537.36 (KHTML, like Gecko) Chrome/122.0.0.0 Safari/537.36" version="24.0.4" etag="95pu0Nq73P0TnAv8l42Y" type="github">
  <diagram name="Page-1" id="tAP-VxZioSu3izWC_pkP">
    <mxGraphModel>
      <root>
        <mxCell id="0" />
        <mxCell id="1" parent="0" />
      </root>
    </mxGraphModel>
  </diagram>
</mxfile>
